<svg width="439" height="146" viewBox="0 0 439 146" fill="none" xmlns="http://www.w3.org/2000/svg">
<path d="M10.6199 52L0.329939 5.8H11.2499L18.0399 42.97H18.5999L26.3699 5.8H38.8299L46.8099 42.97H47.2999L54.0899 5.8H64.4499L54.0899 52H40.0199L32.6699 15.18H32.1799L24.8299 52H10.6199ZM69.637 52V30.79V2.51H79.717V13.15C79.717 14.0833 79.6704 15.18 79.577 16.44C79.4837 17.6533 79.3437 18.96 79.157 20.36C79.017 21.7133 78.8537 23.0667 78.667 24.42C78.4804 25.7733 78.2937 27.01 78.107 28.13H79.297C79.857 25.0967 80.6504 22.5533 81.677 20.5C82.7037 18.4467 84.057 16.9067 85.7371 15.88C87.417 14.8067 89.4937 14.27 91.967 14.27C96.1204 14.27 99.2237 15.74 101.277 18.68C103.33 21.62 104.357 26.0767 104.357 32.05V52H94.207V33.17C94.207 29.6233 93.6937 27.0333 92.667 25.4C91.687 23.72 90.147 22.88 88.047 22.88C86.3204 22.88 84.827 23.4633 83.567 24.63C82.3537 25.75 81.4204 27.3833 80.767 29.53C80.1137 31.63 79.7637 34.15 79.717 37.09V52H69.637ZM124.983 63.9C123.256 63.9 121.483 63.7367 119.663 63.41C117.843 63.13 116.093 62.64 114.413 61.94C112.733 61.2867 111.263 60.4467 110.003 59.42L112.803 50.32C114.343 51.9067 116.186 53.05 118.333 53.75C120.48 54.4967 122.556 54.87 124.563 54.87C127.036 54.87 129.09 54.3567 130.723 53.33C132.356 52.35 133.593 50.8567 134.433 48.85C135.273 46.8433 135.716 44.3933 135.763 41.5L136.113 34.92H134.923C134.596 38.0933 133.896 40.7067 132.823 42.76C131.796 44.7667 130.466 46.2367 128.833 47.17C127.2 48.1033 125.31 48.57 123.163 48.57C120.456 48.57 118.216 47.8933 116.443 46.54C114.67 45.1867 113.316 43.18 112.383 40.52C111.496 37.8133 111.053 34.4767 111.053 30.51V15.25H121.133V28.06C121.133 32.26 121.6 35.3167 122.533 37.23C123.513 39.1433 125.03 40.1 127.083 40.1C128.156 40.1 129.113 39.82 129.953 39.26C130.84 38.6533 131.563 37.8133 132.123 36.74C132.73 35.62 133.196 34.2433 133.523 32.61C133.85 30.9767 134.036 29.0867 134.083 26.94V15.25H144.093V41.85C144.093 44.51 143.86 46.9833 143.393 49.27C142.926 51.5567 142.18 53.5867 141.153 55.36C140.173 57.18 138.936 58.72 137.443 59.98C135.95 61.2867 134.153 62.2667 132.053 62.92C130 63.5733 127.643 63.9 124.983 63.9ZM177.269 52V5.8H187.349V52H177.269ZM164.319 14.34V5.8H200.299V14.34H164.319ZM205.262 52V30.79V2.51H215.342V13.15C215.342 14.0833 215.295 15.18 215.202 16.44C215.109 17.6533 214.969 18.96 214.782 20.36C214.642 21.7133 214.479 23.0667 214.292 24.42C214.105 25.7733 213.919 27.01 213.732 28.13H214.922C215.482 25.0967 216.275 22.5533 217.302 20.5C218.329 18.4467 219.682 16.9067 221.362 15.88C223.042 14.8067 225.119 14.27 227.592 14.27C231.745 14.27 234.849 15.74 236.902 18.68C238.955 21.62 239.982 26.0767 239.982 32.05V52H229.832V33.17C229.832 29.6233 229.319 27.0333 228.292 25.4C227.312 23.72 225.772 22.88 223.672 22.88C221.945 22.88 220.452 23.4633 219.192 24.63C217.979 25.75 217.045 27.3833 216.392 29.53C215.739 31.63 215.389 34.15 215.342 37.09V52H205.262ZM247.166 52V33.59V15.25H255.706L255.566 28.9H256.616C256.943 25.4467 257.55 22.67 258.436 20.57C259.323 18.4233 260.513 16.86 262.006 15.88C263.5 14.9 265.296 14.41 267.396 14.41C267.956 14.41 268.563 14.48 269.216 14.62C269.87 14.7133 270.57 14.8767 271.316 15.11L270.826 26.03C269.986 25.61 269.123 25.3067 268.236 25.12C267.396 24.9333 266.626 24.84 265.926 24.84C264.2 24.84 262.706 25.2833 261.446 26.17C260.233 27.0567 259.276 28.3633 258.576 30.09C257.876 31.77 257.433 33.8467 257.246 36.32V52H247.166ZM276.151 52V15.25H286.231V52H276.151ZM281.191 10.7C279.231 10.7 277.714 10.3033 276.641 9.51C275.614 8.67 275.101 7.45667 275.101 5.87C275.101 4.23667 275.614 3.02333 276.641 2.23C277.714 1.39 279.231 0.969998 281.191 0.969998C283.197 0.969998 284.714 1.39 285.741 2.23C286.767 3.07 287.281 4.28333 287.281 5.87C287.281 7.41 286.744 8.6 285.671 9.44C284.644 10.28 283.151 10.7 281.191 10.7ZM302.674 52L290.634 15.25H301.624L309.184 43.81H309.954L317.724 15.25H328.154L316.114 52H302.674ZM348.398 52.98C345.225 52.98 342.472 52.5367 340.138 51.65C337.805 50.7633 335.845 49.5033 334.258 47.87C332.718 46.19 331.552 44.2067 330.758 41.92C330.012 39.6333 329.638 37.09 329.638 34.29C329.638 31.49 330.012 28.8767 330.758 26.45C331.552 24.0233 332.695 21.9 334.188 20.08C335.682 18.26 337.548 16.8367 339.788 15.81C342.075 14.7833 344.712 14.27 347.698 14.27C350.592 14.27 353.135 14.76 355.328 15.74C357.522 16.72 359.318 18.12 360.718 19.94C362.118 21.76 363.098 23.9767 363.658 26.59C364.265 29.1567 364.428 32.05 364.148 35.27L336.078 35.62V30.02L357.568 29.74L354.908 32.75C355.188 30.37 355.048 28.41 354.488 26.87C353.928 25.2833 353.065 24.1167 351.898 23.37C350.732 22.5767 349.355 22.18 347.768 22.18C345.948 22.18 344.408 22.67 343.148 23.65C341.888 24.5833 340.932 25.9367 340.278 27.71C339.625 29.4367 339.298 31.5367 339.298 34.01C339.298 37.93 340.092 40.8233 341.678 42.69C343.312 44.5567 345.552 45.49 348.398 45.49C349.705 45.49 350.802 45.3267 351.688 45C352.575 44.6267 353.298 44.16 353.858 43.6C354.418 42.9933 354.838 42.3167 355.118 41.57C355.445 40.7767 355.655 39.9833 355.748 39.19L364.708 40.52C364.522 42.2 364.078 43.7867 363.378 45.28C362.678 46.7733 361.675 48.1033 360.368 49.27C359.108 50.39 357.475 51.3 355.468 52C353.508 52.6533 351.152 52.98 348.398 52.98ZM385.868 52V15.25H395.948V52H385.868ZM390.908 10.7C388.948 10.7 387.431 10.3033 386.358 9.51C385.331 8.67 384.818 7.45667 384.818 5.87C384.818 4.23667 385.331 3.02333 386.358 2.23C387.431 1.39 388.948 0.969998 390.908 0.969998C392.914 0.969998 394.431 1.39 395.458 2.23C396.484 3.07 396.998 4.28333 396.998 5.87C396.998 7.41 396.461 8.6 395.388 9.44C394.361 10.28 392.868 10.7 390.908 10.7ZM403.641 52V30.65V15.25H412.041L411.901 28.13H412.951C413.418 25.0033 414.164 22.4133 415.191 20.36C416.264 18.3067 417.664 16.79 419.391 15.81C421.118 14.7833 423.218 14.27 425.691 14.27C429.844 14.27 432.994 15.7167 435.141 18.61C437.288 21.4567 438.361 25.89 438.361 31.91V52H428.211V33.03C428.211 29.53 427.698 26.9633 426.671 25.33C425.644 23.65 424.081 22.81 421.981 22.81C420.208 22.81 418.714 23.3933 417.501 24.56C416.288 25.68 415.354 27.3133 414.701 29.46C414.048 31.56 413.721 34.1033 413.721 37.09V52H403.641ZM25.3899 75.91C26.0899 75.84 27.1399 76.05 27.2099 76.96C27.3499 77.73 26.4399 78.36 25.7399 78.43C19.1599 79.06 12.5799 79.13 5.99994 78.78C5.92994 83.19 5.85994 87.6 5.85994 92.08C5.85994 95.51 5.85994 98.94 5.92994 102.37C9.77994 102.23 13.6299 102.09 17.4799 102.02C18.2499 101.95 19.0899 102.58 18.9499 103.42C18.7399 104.26 17.6899 104.54 16.9199 104.61C13.2799 104.68 9.63994 104.82 5.92994 104.96C5.92994 105.03 5.92994 105.1 5.92994 105.17C5.99994 109.23 5.92994 113.36 6.41994 117.35C6.55994 119.03 6.97994 120.85 8.16994 122.11C9.28994 123.3 10.8299 123.72 12.3699 123.79C16.1499 123.93 19.7199 121.69 23.2199 120.57C23.9199 120.36 25.0399 120.36 25.3899 121.2C25.8099 121.9 25.1799 122.67 24.4799 122.88C19.9999 124.28 15.7299 126.94 10.8999 126.31C7.11994 125.82 4.31994 123.58 3.33994 119.8C2.84994 117.84 2.84994 115.74 2.77994 113.71C2.70994 111.26 2.63994 108.81 2.56994 106.43C2.35994 96.84 2.49994 87.25 2.56994 77.66C2.56994 76.54 3.96994 75.98 4.94994 76.12C5.15994 76.12 5.29994 76.12 5.50994 76.12C12.0899 76.54 18.7399 76.47 25.3899 75.91ZM56.197 97.89C56.8971 97.89 57.737 98.52 57.597 99.29C57.3871 100.2 56.4071 100.48 55.637 100.48C48.987 100.62 42.337 100.83 35.687 100.97C34.987 101.04 34.077 100.41 34.287 99.57C34.427 98.73 35.477 98.45 36.247 98.38C42.897 98.24 49.547 98.1 56.197 97.89ZM93.5486 105.45C93.0586 106.15 92.0786 106.5 91.3086 106.22C90.6086 106.01 89.9086 105.24 90.3986 104.54C93.8286 99.71 95.5786 93.76 95.3686 87.81C95.1586 83.33 93.8986 76.19 88.8586 74.58C83.6786 72.97 78.9886 78.85 76.5386 82.56C73.6686 86.83 71.7086 91.66 70.4486 96.63C67.6486 107.55 66.8086 119.8 69.8186 130.79C71.0786 135.48 74.2986 141.36 80.0386 140.73C85.0086 140.17 89.6286 136.32 93.1286 133.03C100.479 125.96 105.589 116.79 110.489 107.97C111.259 106.57 114.549 107.13 113.639 108.81C107.479 119.87 100.969 131.35 90.4686 138.84C85.7086 142.2 79.3386 145.14 73.6686 142.06C68.3486 139.12 66.4586 132.68 65.4786 127.08C64.2886 120.5 64.4286 113.78 65.1286 107.13C65.7586 101.32 67.0186 95.51 69.1186 89.98C71.2186 84.73 74.1586 79.55 78.3586 75.77C82.6286 71.92 89.3486 69.96 93.9686 74.37C97.8186 77.94 98.8686 84.03 98.7986 89.07C98.6586 94.88 96.9086 100.62 93.5486 105.45ZM133.708 98.03C134.198 98.59 133.988 99.5 133.358 99.85C130.278 101.39 126.848 103.84 123.278 104.26C123.208 105.94 122.858 107.62 122.228 109.16C121.528 111.12 120.408 113.15 118.518 114.13C116.558 115.25 113.898 115.11 112.428 113.22C111.028 111.54 110.468 109.09 110.258 106.99C110.048 104.4 110.398 101.88 111.098 99.43C111.518 97.82 114.948 97.89 114.458 99.64C113.478 103.28 112.988 107.97 115.018 111.33C116.278 113.36 117.678 111.26 118.378 109.93C119.218 108.32 119.778 106.5 119.918 104.68C119.918 104.47 119.918 104.19 119.918 103.91C119.358 103.77 118.798 103.49 118.238 103.14C116.698 102.16 115.228 100.27 115.648 98.31C116.138 96.07 119.008 95.51 120.828 96.56C122.438 97.54 122.998 99.85 123.208 101.67C126.078 101.46 129.018 99.08 131.328 97.89C132.028 97.54 133.078 97.4 133.708 98.03ZM119.218 99.57C119.218 99.64 119.218 99.71 119.288 99.78C119.218 99.71 119.218 99.64 119.218 99.57ZM160.797 100.2C161.567 98.73 164.857 99.29 163.947 101.04C162.057 104.47 156.807 110.14 152.817 106.08C151.277 104.54 151.347 102.44 150.507 100.55C150.437 100.48 150.367 100.41 150.367 100.34C150.297 100.48 150.157 100.55 150.087 100.69C149.737 101.11 149.457 101.6 149.177 102.02C148.617 102.93 148.057 103.91 147.567 104.96C146.727 106.71 146.307 109.23 143.927 109.23C141.407 109.23 141.617 106.43 141.337 104.68C141.057 102.3 140.637 99.71 139.867 97.4C139.797 97.26 139.657 97.05 139.587 96.84C139.377 97.12 139.097 97.4 139.027 97.54C138.467 98.45 137.977 99.36 137.557 100.34C135.877 104.4 135.457 108.88 134.967 113.22C134.967 113.29 134.967 113.36 134.897 113.5C134.967 115.18 131.607 115.6 131.537 113.92C131.047 107.41 130.767 100.9 130.697 94.46C130.627 92.71 134.057 92.29 134.057 93.97C134.057 95.93 134.127 97.96 134.197 99.92C134.897 98.17 135.807 96.42 136.997 95.16C138.047 94.11 139.587 93.55 140.987 94.04C142.247 94.46 142.877 95.58 143.227 96.77C143.787 98.52 144.137 100.27 144.417 102.02C144.487 102.58 144.627 103.07 144.697 103.63C144.697 103.56 144.697 103.49 144.697 103.49C145.327 102.3 146.027 101.11 146.797 99.99C148.127 98.17 150.787 96.35 152.887 98.31C154.567 99.92 153.867 103.28 155.827 104.61C156.737 105.24 157.927 103.91 158.487 103.28C159.467 102.37 160.167 101.32 160.797 100.2ZM191.012 100.2C191.782 98.73 195.072 99.29 194.162 101.04C192.272 104.47 187.022 110.14 183.032 106.08C181.492 104.54 181.562 102.44 180.722 100.55C180.652 100.48 180.582 100.41 180.582 100.34C180.512 100.48 180.372 100.55 180.302 100.69C179.952 101.11 179.672 101.6 179.392 102.02C178.832 102.93 178.272 103.91 177.782 104.96C176.942 106.71 176.522 109.23 174.142 109.23C171.622 109.23 171.832 106.43 171.552 104.68C171.272 102.3 170.852 99.71 170.082 97.4C170.012 97.26 169.872 97.05 169.802 96.84C169.592 97.12 169.312 97.4 169.242 97.54C168.682 98.45 168.192 99.36 167.772 100.34C166.092 104.4 165.672 108.88 165.182 113.22C165.182 113.29 165.182 113.36 165.112 113.5C165.182 115.18 161.822 115.6 161.752 113.92C161.262 107.41 160.982 100.9 160.912 94.46C160.842 92.71 164.272 92.29 164.272 93.97C164.272 95.93 164.342 97.96 164.412 99.92C165.112 98.17 166.022 96.42 167.212 95.16C168.262 94.11 169.802 93.55 171.202 94.04C172.462 94.46 173.092 95.58 173.442 96.77C174.002 98.52 174.352 100.27 174.632 102.02C174.702 102.58 174.842 103.07 174.912 103.63C174.912 103.56 174.912 103.49 174.912 103.49C175.542 102.3 176.242 101.11 177.012 99.99C178.342 98.17 181.002 96.35 183.102 98.31C184.782 99.92 184.082 103.28 186.042 104.61C186.952 105.24 188.142 103.91 188.702 103.28C189.682 102.37 190.382 101.32 191.012 100.2ZM219.477 102.65C220.387 101.32 223.677 101.88 222.627 103.56C218.637 109.65 212.477 114.69 204.847 114.9C199.107 115.04 193.017 111.82 191.407 106.01C191.197 105.45 191.127 104.96 191.057 104.4C190.847 104.12 190.847 103.77 190.987 103.49C190.847 98.66 193.997 94.32 198.967 93.27C201.697 92.71 204.847 93.27 206.947 95.23C209.257 97.47 209.257 100.76 207.297 103.21C204.427 106.85 199.457 107.76 195.187 106.5C195.607 107.41 196.167 108.25 196.797 108.95C199.947 112.24 204.637 113.08 208.837 111.68C213.457 110.14 216.887 106.64 219.477 102.65ZM194.417 103.14C196.237 104.33 198.547 104.75 200.647 104.26C202.887 103.77 205.407 101.95 205.337 99.43C205.267 97.26 203.167 95.79 201.137 95.65C199.317 95.51 197.497 96.35 196.237 97.68C194.837 99.15 194.277 101.18 194.417 103.14ZM247.141 102.72C247.911 101.32 251.201 101.88 250.221 103.56C248.471 106.64 246.581 109.72 243.991 112.17C241.611 114.55 238.321 116.65 234.821 116.51C227.751 116.23 227.891 107.41 228.661 101.39C226.981 102.51 225.091 103.35 222.921 103.14C221.521 103 220.121 102.44 219.491 101.11C218.861 99.92 219.001 98.52 219.211 97.33C219.421 95.72 222.851 95.72 222.571 97.54C222.361 98.87 222.221 100.83 224.181 100.55C226.001 100.27 227.471 98.87 228.731 97.68C229.011 97.4 229.431 97.26 229.851 97.19C230.901 96.63 232.651 96.98 232.511 98.31C231.951 101.53 231.461 104.82 231.811 108.11C232.091 110.28 232.791 114.13 235.731 113.92C238.391 113.71 240.841 111.4 242.521 109.58C244.341 107.48 245.741 105.1 247.141 102.72ZM278.82 98.52C279.38 98.59 280.5 99.08 280.22 99.92C278.12 105.31 274.76 110.07 270.21 113.64C266.01 116.86 260.55 119.45 255.16 117.84C249.77 116.23 247.11 110.77 247.11 105.45C247.04 100.34 249.49 94.95 254.74 93.41C259.78 92.01 265.03 94.88 266.15 100.06C266.5 101.74 263.07 102.23 262.72 100.55C261.74 96 256.49 94.11 253.13 97.47C247.39 103.28 250.96 117.14 260.34 115.6C264.26 114.97 267.83 112.24 270.56 109.51C273.29 106.71 275.46 103.35 276.86 99.71C277.14 98.87 277.91 98.45 278.82 98.52ZM305.336 102.65C306.246 101.32 309.536 101.88 308.486 103.56C304.496 109.65 298.336 114.69 290.706 114.9C284.966 115.04 278.876 111.82 277.266 106.01C277.056 105.45 276.986 104.96 276.916 104.4C276.706 104.12 276.706 103.77 276.846 103.49C276.706 98.66 279.856 94.32 284.826 93.27C287.556 92.71 290.706 93.27 292.806 95.23C295.116 97.47 295.116 100.76 293.156 103.21C290.286 106.85 285.316 107.76 281.046 106.5C281.466 107.41 282.026 108.25 282.656 108.95C285.806 112.24 290.496 113.08 294.696 111.68C299.316 110.14 302.746 106.64 305.336 102.65ZM280.276 103.14C282.096 104.33 284.406 104.75 286.506 104.26C288.746 103.77 291.266 101.95 291.196 99.43C291.126 97.26 289.026 95.79 286.996 95.65C285.176 95.51 283.356 96.35 282.096 97.68C280.696 99.15 280.136 101.18 280.276 103.14ZM353.186 82.28C353.746 87.11 350.246 91.94 347.656 95.72C344.856 99.85 341.776 103.77 339.886 108.46C339.326 109.93 336.036 109.44 336.806 107.55C338.416 103.49 341.006 99.85 343.526 96.28C345.766 93.13 348.216 89.84 349.336 86.13C349.966 84.17 350.106 82 348.846 80.32C347.726 78.85 346.046 78.08 344.296 77.94C340.586 77.66 336.876 79.48 334.636 82.28C333.516 83.61 332.536 85.71 333.446 87.39C334.426 89.07 336.526 89.28 338.276 89.56C340.516 89.84 339.676 92.36 337.716 92.08C335.126 91.8 332.186 91.24 330.576 89C329.106 86.9 329.666 84.24 330.926 82.21C333.376 78.22 338.206 75.63 342.896 75.35C347.376 75.07 352.556 77.31 353.186 82.28ZM339.886 110.63V111.4C339.886 111.61 339.816 111.82 339.746 112.03C339.606 112.17 339.536 112.24 339.466 112.38C339.186 112.66 338.766 112.8 338.346 112.87C337.926 112.94 337.436 112.87 337.086 112.66C336.806 112.52 336.456 112.17 336.456 111.89V111.12C336.456 110.84 336.456 110.63 336.596 110.42C336.666 110.28 336.736 110.21 336.806 110.14C337.086 109.79 337.576 109.65 337.996 109.58C338.346 109.51 338.906 109.58 339.256 109.79C339.466 109.93 339.886 110.28 339.886 110.63Z" fill="black"/>
</svg>
