<svg width="273" height="126" viewBox="0 0 273 126" fill="none" xmlns="http://www.w3.org/2000/svg">
<path d="M30.67 52V5.8H40.75V52H30.67ZM1.26998 52V5.8H11.35V52H1.26998ZM7.70998 32.82V24.49H35.15V32.82H7.70998ZM65.5699 52.98C61.9766 52.98 58.7799 52.2567 55.9799 50.81C53.2266 49.3633 51.0566 47.2167 49.4699 44.37C47.9299 41.4767 47.1599 37.8833 47.1599 33.59C47.1599 29.2033 47.9532 25.5867 49.5399 22.74C51.1266 19.8933 53.3199 17.77 56.1199 16.37C58.9199 14.97 62.0699 14.27 65.5699 14.27C69.2099 14.27 72.4066 14.9933 75.1599 16.44C77.9599 17.8867 80.1299 20.0333 81.6699 22.88C83.2566 25.7267 84.0499 29.32 84.0499 33.66C84.0499 38.0467 83.2332 41.6867 81.5999 44.58C80.0132 47.4267 77.8199 49.55 75.0199 50.95C72.2199 52.3033 69.0699 52.98 65.5699 52.98ZM65.8499 45.49C67.5766 45.49 69.0232 45.07 70.1899 44.23C71.4032 43.3433 72.3132 42.06 72.9199 40.38C73.5732 38.6533 73.8999 36.6 73.8999 34.22C73.8999 31.6533 73.5732 29.4833 72.9199 27.71C72.2666 25.9367 71.2866 24.5833 69.9799 23.65C68.7199 22.67 67.1799 22.18 65.3599 22.18C63.6332 22.18 62.1632 22.6 60.9499 23.44C59.7832 24.28 58.8732 25.5633 58.2199 27.29C57.6132 28.97 57.3099 31.0233 57.3099 33.45C57.3099 37.3233 58.0566 40.31 59.5499 42.41C61.0432 44.4633 63.1432 45.49 65.8499 45.49ZM95.6037 52L86.5037 15.25H97.0737L102.184 43.81H103.094L109.044 15.25H120.734L126.684 43.81H127.594L132.844 15.25H142.994L133.894 52H120.314L115.064 24.49H114.224L109.044 52H95.6037ZM163.135 52V15.25H173.215V52H163.135ZM168.175 10.7C166.215 10.7 164.698 10.3033 163.625 9.51C162.598 8.67 162.085 7.45667 162.085 5.87C162.085 4.23667 162.598 3.02333 163.625 2.23C164.698 1.39 166.215 0.969998 168.175 0.969998C170.182 0.969998 171.698 1.39 172.725 2.23C173.752 3.07 174.265 4.28333 174.265 5.87C174.265 7.41 173.728 8.6 172.655 9.44C171.628 10.28 170.135 10.7 168.175 10.7ZM194.699 52.84C190.639 52.84 187.605 51.7667 185.599 49.62C183.639 47.4267 182.659 44.0433 182.659 39.47V23.16H177.829L177.899 15.81H180.349C182.215 15.7167 183.569 15.2733 184.409 14.48C185.295 13.64 185.855 12.31 186.089 10.49L186.649 6.99H192.459V15.25H201.489V23.44H192.459V38.84C192.459 40.5667 192.855 41.8267 193.649 42.62C194.489 43.3667 195.655 43.74 197.149 43.74C197.942 43.74 198.735 43.6467 199.529 43.46C200.322 43.2267 201.045 42.9233 201.699 42.55V51.79C200.299 52.21 199.015 52.49 197.849 52.63C196.682 52.77 195.632 52.84 194.699 52.84ZM23.18 78.43C16.81 79.06 10.3 79.13 3.85998 78.78C3.85998 86.62 3.85998 94.53 3.92998 102.37C7.91998 102.23 11.84 102.16 15.83 102.02C16.6 101.95 17.44 102.58 17.3 103.42C17.09 104.26 16.04 104.54 15.27 104.61C11.49 104.68 7.70998 104.82 3.92998 104.96C3.92998 111.05 3.92998 117.21 3.92998 123.3C3.92998 125.05 0.499977 125.47 0.499977 123.79C0.499977 108.18 0.499977 92.64 0.499977 77.03C0.429977 75.49 3.29998 75 3.78998 76.19C10.16 76.54 16.53 76.47 22.83 75.91C23.53 75.84 24.65 76.05 24.72 76.96C24.86 77.73 23.95 78.36 23.18 78.43ZM59.3886 102.72C60.1586 101.32 63.4486 101.88 62.4686 103.56C60.7186 106.64 58.8286 109.72 56.2386 112.17C53.8586 114.55 50.5686 116.72 47.0686 116.51C41.5386 116.3 40.4186 110.84 40.5586 105.52C40.2086 106.08 39.7886 106.64 39.3686 107.2C37.7586 109.37 35.5886 112.1 32.9286 113.01C29.9886 114.06 27.7486 112.17 27.1886 109.3C26.5586 105.94 26.9786 102.44 27.3986 99.15C27.6086 97.54 30.9686 97.54 30.7586 99.36C30.4786 101.95 30.1286 104.61 30.4086 107.2C30.4786 108.18 30.5486 109.44 31.1086 110.28C31.8086 111.26 32.7886 110 33.4186 109.44C36.7786 106.36 39.0186 102.3 41.1886 98.38C41.2586 98.31 41.2586 98.24 41.3286 98.17V98.1C41.6086 96.49 44.9686 96.49 44.6886 98.31C44.1986 101.53 43.7086 104.82 44.0586 108.11C44.3386 110.28 45.0386 114.13 47.9786 113.92C50.6386 113.71 53.0886 111.4 54.7686 109.58C56.5886 107.48 57.9886 105.1 59.3886 102.72ZM85.9776 98.73C86.8176 97.4 90.1076 97.96 89.1276 99.64C87.1676 102.93 84.1576 105.8 80.5176 107.2C77.0176 108.53 72.9576 107.76 71.1376 104.19C70.2276 102.3 70.0876 100.27 69.5276 98.31C69.3176 98.52 69.1076 98.73 69.1076 98.8C68.5476 99.5 68.1976 100.27 67.7776 101.11C65.9576 105.1 64.6976 109.44 63.7876 113.71C63.7176 113.99 63.5776 114.2 63.3676 114.41C62.4576 115.25 60.4276 115.18 60.3576 113.92C59.8676 107.41 59.5876 100.9 59.5176 94.46C59.4476 92.71 62.8776 92.29 62.8776 93.97C62.9476 97.26 63.0176 100.62 63.1576 103.91C63.5076 102.93 63.9276 101.95 64.3476 100.97C65.0476 99.29 65.9576 97.61 67.2176 96.35C68.4776 95.09 70.6476 94.32 72.0476 95.86C73.3076 97.19 73.2376 99.71 73.7276 101.46C74.1476 103.07 75.0576 104.89 76.8776 105.24C78.7676 105.52 80.7976 104.19 82.1976 103.07C83.7376 101.88 84.9976 100.41 85.9776 98.73ZM117.679 98.52C118.239 98.59 119.359 99.08 119.079 99.92C116.979 105.31 113.619 110.07 109.069 113.64C104.869 116.86 99.4094 119.45 94.0194 117.84C88.6294 116.23 85.9694 110.77 85.9694 105.45C85.8994 100.34 88.3494 94.95 93.5994 93.41C98.6394 92.01 103.889 94.88 105.009 100.06C105.359 101.74 101.929 102.23 101.579 100.55C100.599 96 95.3494 94.11 91.9894 97.47C86.2494 103.28 89.8194 117.14 99.1994 115.6C103.119 114.97 106.689 112.24 109.419 109.51C112.149 106.71 114.319 103.35 115.719 99.71C115.999 98.87 116.769 98.45 117.679 98.52ZM154.836 75.35C156.586 76.61 154.066 78.5 152.666 77.52C150.986 76.26 148.816 76.68 146.856 76.82C144.476 77.03 142.096 77.24 139.786 77.45C135.026 77.94 130.266 78.5 125.506 79.2C123.406 79.55 121.306 79.9 119.136 80.25C119.066 83.19 118.996 86.13 118.996 89C118.926 93.41 119.066 97.82 119.416 102.16C119.626 104.4 119.906 106.64 120.256 108.81C120.536 110.63 120.606 113.15 121.866 114.62C123.196 116.23 124.666 113.99 125.506 112.94C126.766 111.4 127.886 109.65 128.866 107.9C130.896 104.47 132.506 100.9 134.046 97.26C134.746 95.79 138.036 96.35 137.196 98.17C135.096 102.93 132.996 107.69 129.986 111.96C127.886 114.97 124.246 119.87 120.046 117.14C118.156 115.95 117.596 113.78 117.246 111.75C116.756 109.23 116.406 106.71 116.196 104.12C115.426 96.42 115.496 88.58 115.776 80.81C109.546 82 103.316 83.26 97.1558 84.8C96.3858 84.94 95.3358 85.01 94.9158 84.17C94.5658 83.47 95.1258 82.63 95.8958 82.49C102.476 80.81 109.126 79.41 115.846 78.22C115.916 76.61 115.986 75.07 116.056 73.46C116.126 71.85 119.486 71.85 119.416 73.67C119.416 75 119.346 76.33 119.276 77.59C121.586 77.24 123.826 76.89 126.136 76.54C131.316 75.77 136.426 75.21 141.606 74.72C143.986 74.44 146.366 74.23 148.816 74.09C150.916 74.02 153.086 74.09 154.836 75.35ZM151.971 102.72C152.811 101.32 156.101 101.88 155.121 103.56C153.371 106.64 151.481 109.72 148.891 112.17C146.441 114.55 143.221 116.65 139.721 116.51C131.181 116.16 133.141 103.49 133.981 98.1C134.261 96.49 137.621 96.49 137.341 98.31C136.851 101.53 136.361 104.82 136.711 108.11C136.921 110.28 137.621 114.13 140.631 113.92C143.221 113.71 145.671 111.4 147.351 109.58C149.241 107.48 150.641 105.1 151.971 102.72ZM137.901 94.25C138.181 96 134.751 96.42 134.541 94.74C134.331 93.34 134.751 92.08 135.661 90.96C136.151 90.33 137.411 90.26 138.041 90.61C138.811 91.03 138.811 91.8 138.321 92.43C137.901 92.92 137.831 93.62 137.901 94.25ZM175.595 98.03C176.085 98.59 175.875 99.5 175.245 99.85C172.165 101.39 168.735 103.84 165.165 104.26C165.095 105.94 164.745 107.62 164.115 109.16C163.415 111.12 162.295 113.15 160.405 114.13C158.445 115.25 155.785 115.11 154.315 113.22C152.915 111.54 152.355 109.09 152.145 106.99C151.935 104.4 152.285 101.88 152.985 99.43C153.405 97.82 156.835 97.89 156.345 99.64C155.365 103.28 154.875 107.97 156.905 111.33C158.165 113.36 159.565 111.26 160.265 109.93C161.105 108.32 161.665 106.5 161.805 104.68C161.805 104.47 161.805 104.19 161.805 103.91C161.245 103.77 160.685 103.49 160.125 103.14C158.585 102.16 157.115 100.27 157.535 98.31C158.025 96.07 160.895 95.51 162.715 96.56C164.325 97.54 164.885 99.85 165.095 101.67C167.965 101.46 170.905 99.08 173.215 97.89C173.915 97.54 174.965 97.4 175.595 98.03ZM161.105 99.57C161.105 99.64 161.105 99.71 161.175 99.78C161.105 99.71 161.105 99.64 161.105 99.57ZM199.044 98.73C199.884 97.4 203.174 97.96 202.194 99.64C200.234 102.93 197.224 105.8 193.584 107.2C190.084 108.53 186.024 107.76 184.204 104.19C183.294 102.3 183.154 100.27 182.594 98.31C182.384 98.52 182.174 98.73 182.174 98.8C181.614 99.5 181.264 100.27 180.844 101.11C179.024 105.1 177.764 109.44 176.854 113.71C176.784 113.99 176.644 114.2 176.434 114.41C175.524 115.25 173.494 115.18 173.424 113.92C172.934 107.41 172.654 100.9 172.584 94.46C172.514 92.71 175.944 92.29 175.944 93.97C176.014 97.26 176.084 100.62 176.224 103.91C176.574 102.93 176.994 101.95 177.414 100.97C178.114 99.29 179.024 97.61 180.284 96.35C181.544 95.09 183.714 94.32 185.114 95.86C186.374 97.19 186.304 99.71 186.794 101.46C187.214 103.07 188.124 104.89 189.944 105.24C191.834 105.52 193.864 104.19 195.264 103.07C196.804 101.88 198.064 100.41 199.044 98.73ZM225.216 102.58C226.686 101.67 229.136 103.35 227.246 104.54C221.086 108.46 215.556 113.36 211.006 119.03C210.306 121.55 208.486 123.79 206.316 125.33C205.406 125.96 202.816 125.4 203.726 123.93C204.986 121.97 206.316 120.15 207.716 118.4C208.066 116.65 207.786 114.83 206.316 113.43C203.866 111.12 199.666 110.84 198.686 107.06C197.916 103.77 200.786 99.99 202.746 97.61C204.986 95.02 207.856 92.64 211.076 91.31C213.946 90.12 218.636 90.47 219.126 94.32C219.336 96 215.976 96.49 215.766 94.74C215.136 90.26 207.716 96.63 206.526 97.89C204.356 100.13 200.016 105.31 203.166 108.11C204.636 109.44 206.666 109.93 208.276 111.12C209.466 112.03 210.376 113.22 210.866 114.62C215.066 110 219.896 105.94 225.216 102.58ZM272.163 82.28C272.723 87.11 269.223 91.94 266.633 95.72C263.833 99.85 260.753 103.77 258.863 108.46C258.303 109.93 255.013 109.44 255.783 107.55C257.393 103.49 259.983 99.85 262.503 96.28C264.743 93.13 267.193 89.84 268.313 86.13C268.943 84.17 269.083 82 267.823 80.32C266.703 78.85 265.023 78.08 263.273 77.94C259.563 77.66 255.853 79.48 253.613 82.28C252.493 83.61 251.513 85.71 252.423 87.39C253.403 89.07 255.503 89.28 257.253 89.56C259.493 89.84 258.653 92.36 256.693 92.08C254.103 91.8 251.163 91.24 249.553 89C248.083 86.9 248.643 84.24 249.903 82.21C252.353 78.22 257.183 75.63 261.873 75.35C266.353 75.07 271.533 77.31 272.163 82.28ZM258.863 110.63V111.4C258.863 111.61 258.793 111.82 258.723 112.03C258.583 112.17 258.513 112.24 258.443 112.38C258.163 112.66 257.743 112.8 257.323 112.87C256.903 112.94 256.413 112.87 256.063 112.66C255.783 112.52 255.433 112.17 255.433 111.89V111.12C255.433 110.84 255.433 110.63 255.573 110.42C255.643 110.28 255.713 110.21 255.783 110.14C256.063 109.79 256.553 109.65 256.973 109.58C257.323 109.51 257.883 109.58 258.233 109.79C258.443 109.93 258.863 110.28 258.863 110.63Z" fill="black"/>
</svg>
