<svg width="890" height="361" viewBox="0 0 890 361" fill="none" xmlns="http://www.w3.org/2000/svg">
<path d="M104.5 54.4C104.5 46.2333 104.033 39.7 103.1 34.8C102.4 29.6667 100.883 25.7 98.55 22.9C96.2167 19.8667 92.8333 17.8833 88.4 16.95C84.2 15.7833 78.4833 14.9667 71.25 14.5V0.499986H189.2V14.5C181.967 14.7333 176.133 15.4333 171.7 16.6C167.267 17.7667 163.883 19.8667 161.55 22.9C159.217 25.9333 157.7 30.1333 157 35.5C156.3 40.8667 155.95 47.9833 155.95 56.85V270.7C155.95 300.1 148.483 322.5 133.55 337.9C118.617 353.3 96.3333 361 66.7 361C45.4667 361 29.1333 357.383 17.7 350.15C6.03333 342.917 0.199996 333.7 0.199996 322.5C0.199996 315.733 2.41666 310.483 6.85 306.75C11.05 303.25 16.3 301.5 22.6 301.5C27.9667 301.5 32.2833 302.9 35.55 305.7C38.5833 308.5 42.4333 313.75 47.1 321.45C51.7667 329.15 55.9667 334.283 59.7 336.85C63.4333 339.417 67.9833 340.7 73.35 340.7C83.3833 340.7 91.0833 335.217 96.45 324.25C101.817 313.283 104.5 297.883 104.5 278.05V54.4ZM511.979 202.1L559.229 67C564.829 51.3667 567.629 39.7 567.629 32C567.629 24.7667 565.063 20.1 559.929 18C555.029 15.6667 547.329 14.5 536.829 14.5V0.499986H636.229V14.5C627.363 14.5 619.313 16.7167 612.079 21.15C605.079 25.35 599.713 32.5833 595.979 42.85L511.629 273.5H480.479L419.579 88.7L350.279 273.5H321.229L247.029 69.1C242.596 57.2 238.513 47.6333 234.779 40.4C231.046 33.1667 227.079 27.6833 222.879 23.95C218.679 20.2167 214.129 17.7667 209.229 16.6C204.329 15.4333 198.496 14.85 191.729 14.85V0.499986H324.029V14.85C312.129 14.85 303.963 16.0167 299.529 18.35C295.096 20.45 292.879 24.0667 292.879 29.2C292.879 31.0667 292.996 32.9333 293.229 34.8C293.463 36.4333 293.929 38.4167 294.629 40.75C295.329 42.85 296.146 45.5333 297.079 48.8C298.246 52.0667 299.763 56.15 301.629 61.05L350.629 202.1L407.329 47.4C404.996 41.1 402.663 35.9667 400.329 32C397.996 28.0333 395.196 24.8833 391.929 22.55C388.896 20.2167 385.396 18.5833 381.429 17.65C377.463 16.4833 372.679 15.55 367.079 14.85V0.499986H490.629V14.85C480.829 14.85 473.596 16.1333 468.929 18.7C464.263 21.0333 461.929 25.7 461.929 32.7C461.929 36.2 462.396 40.2833 463.329 44.95C464.496 49.6167 466.013 54.9833 467.879 61.05L511.979 202.1ZM884.226 270H643.076V256C650.776 255.767 657.076 255.067 661.976 253.9C666.876 252.733 670.61 250.75 673.176 247.95C675.743 245.15 677.493 241.183 678.426 236.05C679.36 230.917 679.826 224.267 679.826 216.1V54.4C679.826 46.2333 679.36 39.7 678.426 34.8C677.726 29.6667 676.21 25.7 673.876 22.9C671.543 19.8667 668.16 17.8833 663.726 16.95C659.526 15.7833 653.926 14.9667 646.926 14.5V0.499986H767.676V14.5C759.743 14.7333 753.326 15.4333 748.426 16.6C743.76 17.7667 740.143 19.8667 737.576 22.9C735.01 25.9333 733.26 30.1333 732.326 35.5C731.626 40.8667 731.276 47.9833 731.276 56.85V203.5C731.276 213.3 732.21 221.35 734.076 227.65C736.176 233.717 739.676 238.5 744.576 242C749.476 245.267 756.01 247.6 764.176 249C772.343 250.167 782.493 250.75 794.626 250.75C808.16 250.75 819.476 249.933 828.576 248.3C837.676 246.667 845.26 243.633 851.326 239.2C857.626 234.533 862.643 228.35 866.376 220.65C870.11 212.95 873.26 202.917 875.826 190.55H889.826L884.226 270Z" fill="white"/>
</svg>
