<svg width="481" height="241" viewBox="0 0 481 241" fill="none" xmlns="http://www.w3.org/2000/svg">
<path d="M133.048 134.65C137.248 128 153.698 130.8 148.798 139.2C138.998 155.65 123.948 170 105.748 177C88.2482 183.65 67.9482 179.8 58.8482 161.95C54.2982 152.5 53.5982 142.35 50.7982 132.55C49.7482 133.6 48.6982 134.65 48.6982 135C45.8982 138.5 44.1482 142.35 42.0482 146.55C32.9482 166.5 26.6482 188.2 22.0982 209.55C21.7482 210.95 21.0482 212 19.9982 213.05C15.4482 217.25 5.29819 216.9 4.94819 210.6C2.49819 178.05 1.09819 145.5 0.748193 113.3C0.398193 104.55 17.5482 102.45 17.5482 110.85C17.8982 127.3 18.2482 144.1 18.9482 160.55C20.6982 155.65 22.7982 150.75 24.8982 145.85C28.3982 137.45 32.9482 129.05 39.2482 122.75C45.5482 116.45 56.3982 112.6 63.3982 120.3C69.6982 126.95 69.3482 139.55 71.7982 148.3C73.8982 156.35 78.4482 165.45 87.5482 167.2C96.9982 168.6 107.148 161.95 114.148 156.35C121.848 150.4 128.148 143.05 133.048 134.65ZM275.457 154.25C280.007 147.6 296.457 150.4 291.207 158.8C271.257 189.25 240.457 214.45 202.307 215.5C173.607 216.2 143.157 200.1 135.107 171.05C134.057 168.25 133.707 165.8 133.357 163C132.307 161.6 132.307 159.85 133.007 158.45C132.307 134.3 148.057 112.6 172.907 107.35C186.557 104.55 202.307 107.35 212.807 117.15C224.357 128.35 224.357 144.8 214.557 157.05C200.207 175.25 175.357 179.8 154.007 173.5C156.107 178.05 158.907 182.25 162.057 185.75C177.807 202.2 201.257 206.4 222.257 199.4C245.357 191.7 262.507 174.2 275.457 154.25ZM150.157 156.7C159.257 162.65 170.807 164.75 181.307 162.3C192.507 159.85 205.107 150.75 204.757 138.15C204.407 127.3 193.907 119.95 183.757 119.25C174.657 118.55 165.557 122.75 159.257 129.4C152.257 136.75 149.457 146.9 150.157 156.7ZM471.528 17.75C480.278 24.05 467.678 33.5 460.678 28.6C452.278 22.3 441.428 24.4 431.628 25.1C419.728 26.15 407.828 27.2 396.278 28.25C372.478 30.7 348.678 33.5 324.878 37C314.378 38.75 303.878 40.5 293.028 42.25C292.678 56.95 292.328 71.65 292.328 86C291.978 108.05 292.678 130.1 294.428 151.8C295.478 163 296.878 174.2 298.628 185.05C300.028 194.15 300.378 206.75 306.678 214.1C313.328 222.15 320.678 210.95 324.878 205.7C331.178 198 336.778 189.25 341.678 180.5C351.828 163.35 359.878 145.5 367.578 127.3C371.078 119.95 387.528 122.75 383.328 131.85C372.828 155.65 362.328 179.45 347.278 200.8C336.778 215.85 318.578 240.35 297.578 226.7C288.128 220.75 285.328 209.9 283.578 199.75C281.128 187.15 279.378 174.55 278.328 161.6C274.478 123.1 274.828 83.9 276.228 45.05C245.078 51 213.928 57.3 183.128 65C179.278 65.7 174.028 66.05 171.928 61.85C170.178 58.35 172.978 54.15 176.828 53.45C209.728 45.05 242.978 38.05 276.578 32.1C276.928 24.05 277.278 16.35 277.628 8.29998C277.978 0.249977 294.778 0.249977 294.428 9.34999C294.428 16 294.078 22.65 293.728 28.95C305.278 27.2 316.478 25.45 328.028 23.7C353.928 19.85 379.478 17.05 405.378 14.6C417.278 13.2 429.178 12.15 441.428 11.45C451.928 11.1 462.778 11.45 471.528 17.75Z" fill="white"/>
</svg>
